<svg width="35" height="35" viewBox="0 0 35 35" fill="none" xmlns="http://www.w3.org/2000/svg">
<path d="M4.375 4.375V29.1667C4.375 29.5534 4.52865 29.9244 4.80214 30.1979C5.07563 30.4714 5.44656 30.625 5.83333 30.625H30.625V27.7083H7.29167V4.375H4.375Z" fill="#2AA2D2"/>
<path d="M22.3023 21.4477C22.4376 21.5832 22.5983 21.6908 22.7752 21.7641C22.9522 21.8375 23.1418 21.8753 23.3333 21.8753C23.5249 21.8753 23.7145 21.8375 23.8914 21.7641C24.0683 21.6908 24.2291 21.5832 24.3644 21.4477L31.656 14.156L29.594 12.0939L23.3333 18.3546L19.9894 15.0106C19.8541 14.8751 19.6933 14.7675 19.5164 14.6941C19.3395 14.6208 19.1499 14.583 18.9583 14.583C18.7668 14.583 18.5772 14.6208 18.4002 14.6941C18.2233 14.7675 18.0626 14.8751 17.9273 15.0106L10.6356 22.3023L12.6977 24.3644L18.9583 18.1037L22.3023 21.4477Z" fill="#2AA2D2"/>
</svg>
