<svg width="24" height="20" viewBox="0 0 24 20" fill="none" xmlns="http://www.w3.org/2000/svg">
<path d="M22.5 0H1.5C1.10218 0 0.720644 0.175595 0.43934 0.488155C0.158035 0.800716 0 1.22464 0 1.66667V18.3333C0 18.7754 0.158035 19.1993 0.43934 19.5118C0.720644 19.8244 1.10218 20 1.5 20H22.5C22.8978 20 23.2794 19.8244 23.5607 19.5118C23.842 19.1993 24 18.7754 24 18.3333V1.66667C24 1.22464 23.842 0.800716 23.5607 0.488155C23.2794 0.175595 22.8978 0 22.5 0ZM21.345 18.3333H2.745L7.995 12.3L6.915 11.1417L1.5 17.3667V2.93333L10.8225 13.2417C11.1035 13.5521 11.4837 13.7263 11.88 13.7263C12.2763 13.7263 12.6565 13.5521 12.9375 13.2417L22.5 2.675V17.2583L16.98 11.125L15.9225 12.3L21.345 18.3333ZM2.4825 1.66667H21.285L11.88 12.0583L2.4825 1.66667Z" fill="#2AA2D2"/>
</svg>
