<svg width="23" height="25" viewBox="0 0 23 25" fill="none" xmlns="http://www.w3.org/2000/svg">
<path d="M20.5156 0.542969H2.48438C1.49219 0.542969 0.679688 1.35547 0.679688 2.34766V25H8.47656V21.168C8.47656 20.6152 8.92773 20.1621 9.48047 20.1621H13.5137C14.0664 20.1621 14.5195 20.6152 14.5195 21.168V25H22.3164V2.34766C22.3203 1.35547 21.5078 0.542969 20.5156 0.542969ZM5.91211 17.8984H3.37109V14.832H5.91211V17.8984ZM5.91211 13.207H3.37109V10.1406H5.91211V13.207ZM6.64258 6.96484C6.48047 7.34766 6.19336 7.67773 5.82617 7.83594C5.39258 8.02344 4.92383 8.04492 4.46289 8.0332C4.20117 8.02734 3.8457 8.04688 3.62109 7.88672C3.18945 7.57617 3.26758 7.14258 3.26172 6.66602C3.25586 6.24023 3.25586 5.81445 3.24219 5.39063C3.23047 4.99805 3.23633 4.61523 3.24414 4.23047C3.25 3.94727 3.17383 3.57227 3.36914 3.33789C3.69531 2.94336 4.31641 2.93359 4.77539 2.96875C5.52344 3.02734 6.44336 3.39648 6.34375 4.39062C6.32617 4.53711 6.28125 4.69141 6.20703 4.8125C6.12891 4.94141 5.9668 5.0957 6.04297 5.27344C6.13086 5.47461 6.39648 5.58398 6.51758 5.7793C6.66406 6.01758 6.73242 6.25 6.73633 6.46875C6.74023 6.64062 6.70703 6.81055 6.64258 6.96484ZM10.4629 17.8984H7.92188V14.832H10.4629V17.8984ZM10.4629 13.207H7.92188V10.1406H10.4629V13.207ZM10.6641 8.01367C10.4473 8.06836 10.0176 8.02344 9.91797 7.78906C9.7793 7.46094 9.84375 7.08008 9.37695 7.01953C9.1582 6.99023 8.8418 7.08594 8.75 7.30273C8.65625 7.5293 8.73047 7.80859 8.48828 7.96289C8.32422 8.06836 8.09375 8.08399 7.9043 8.05274C7.47852 7.98438 7.37695 7.66992 7.43945 7.2793C7.4707 7.08984 7.51172 6.90039 7.56055 6.71289C7.6543 6.33203 7.77148 5.95508 7.85742 5.57422C7.94727 5.17578 8.01367 4.77344 8.12305 4.37695C8.31445 3.67188 8.66406 2.74219 9.59375 3.05469C9.99219 3.1875 10.1035 3.62891 10.2324 3.98047C10.4199 4.48828 10.4941 5.04688 10.6113 5.57422C10.6973 5.95508 10.8125 6.33203 10.9082 6.71289C10.9629 6.93945 11.0703 7.2793 11.0391 7.55859C11.0156 7.77344 10.916 7.94727 10.6641 8.01367ZM15.0137 17.8984H12.4727V14.832H15.0137V17.8984ZM15.0137 13.207H12.4727V10.1406H15.0137V13.207ZM15.6621 6.59766C15.6582 6.74805 15.6504 6.92578 15.625 7.10352C15.5879 7.37891 15.4824 7.8457 15.1406 7.87891C15.0293 7.89063 14.9082 7.88086 14.8105 7.85156C14.2656 7.69141 14.1719 7.10352 13.8477 6.70117C13.7637 6.59766 13.7051 6.48828 13.6406 6.37695C13.5664 6.25 13.418 6 13.25 5.97852C13.043 5.95117 13.0898 6.24023 13.0918 6.38281C13.0977 6.8125 13.2402 7.72852 12.7441 7.94531C12.0078 8.26758 11.8242 7.26758 11.8125 6.81055C11.7969 6.24023 11.7324 5.66992 11.7324 5.09961C11.7324 4.6543 11.6836 3.70898 12.0742 3.38672C12.707 2.86523 13.0859 3.41211 13.4883 3.87891C13.6719 4.09375 13.791 4.31445 13.9453 4.55078C14.0371 4.69141 14.2793 4.84375 14.3535 4.61719C14.4785 4.24609 14.3477 3.78125 14.543 3.4375C14.7832 3.01758 15.4688 3.12891 15.6484 3.54883C15.6816 3.625 15.6914 3.75391 15.7012 3.8418C15.8066 4.75 15.6777 5.68164 15.6621 6.59766ZM19.5664 17.8984H17.0234V14.832H19.5664V17.8984ZM19.5664 13.207H17.0234V10.1406H19.5664V13.207ZM19.9746 7.61133C19.8633 7.85352 19.5449 8.09375 19.2734 7.99219C18.9648 7.87695 18.8105 7.5625 18.6934 7.27539C18.582 6.99805 18.4492 6.70117 18.1953 6.51953C18.0664 6.42578 17.959 6.47656 17.8711 6.57422C17.5215 6.95508 18.0879 7.73633 17.5059 7.99219C17.3691 8.05078 17.1719 8.04492 17.0254 8.0293C16.3164 7.95508 16.4648 7.24023 16.4609 6.7168C16.457 6.26758 16.457 5.82227 16.4414 5.38281C16.4277 4.98047 16.4355 4.59375 16.4453 4.20898C16.4473 4.04492 16.459 3.9082 16.4785 3.74609C16.502 3.54102 16.4844 3.30469 16.6855 3.16992C16.873 3.04492 17.1367 3.07617 17.3418 3.13086C17.6113 3.20313 17.6113 3.30664 17.7012 3.5625C17.7676 3.75586 17.7754 3.98047 17.7793 4.18555C17.7832 4.30664 17.8047 4.47461 17.9551 4.47656C18.1094 4.47656 18.2402 4.21484 18.3281 4.11328C18.4121 4.01367 18.5078 3.92383 18.5586 3.80469C18.7363 3.40234 19.3105 3.01758 19.7188 3.39648C20.0723 3.72266 19.8008 4.17773 19.5625 4.48047C19.3457 4.75781 18.9648 5.06445 19.1035 5.45898C19.2715 5.94336 19.6289 6.36328 19.834 6.83399C19.8984 6.97852 19.9922 7.17774 20.0117 7.36328C20.0156 7.44922 20.0098 7.53516 19.9746 7.61133Z" fill="#78A3AD"/>
</svg>
