<svg width="26" height="25" viewBox="0 0 26 25" fill="none" xmlns="http://www.w3.org/2000/svg">
<path d="M22.7747 0H1.32027C0.594103 0 0 0.595224 0 1.32276V3.7037C0 4.43123 0.594103 5.02645 1.32027 5.02645H22.7087C23.4349 5.02645 24.029 4.43123 24.029 3.7037V1.32276C24.095 0.595224 23.5009 0 22.7747 0ZM22.7747 13.2936H1.32027C0.594103 13.2936 0 13.8889 0 14.6164V16.9973C0 17.7249 0.594103 18.3201 1.32027 18.3201H22.7087C23.4349 18.3201 24.029 17.7249 24.029 16.9973V14.6164C24.095 13.8889 23.5009 13.2936 22.7747 13.2936ZM13.4008 19.9735H1.32027C0.594103 19.9735 0 20.5688 0 21.2963V23.6772C0 24.4048 0.594103 25 1.32027 25H13.4008C14.127 25 14.7211 24.4048 14.7211 23.6772V21.2963C14.7211 20.5688 14.127 19.9735 13.4008 19.9735ZM24.095 6.6799H1.32027C0.594103 6.6799 0 7.27513 0 8.00262V10.3836C0 11.1111 0.594103 11.7064 1.32027 11.7064H24.095C24.8212 11.7064 25.4153 11.1111 25.4153 10.3836V8.00262C25.4153 7.27513 24.8212 6.6799 24.095 6.6799Z" fill="#0BA4DB"/>
</svg>
