<svg width="35" height="35" viewBox="0 0 35 35" fill="none" xmlns="http://www.w3.org/2000/svg">
<path d="M23.6797 14.106L23.6865 14.0991L22.5039 12.585C22.4819 12.5566 22.4546 12.5329 22.4235 12.5152C22.3923 12.4975 22.358 12.486 22.3224 12.4816C22.2869 12.4771 22.2508 12.4798 22.2162 12.4893C22.1817 12.4988 22.1493 12.5151 22.1211 12.5371L20.3984 13.8804L17.9888 10.8008C17.9668 10.7725 17.9395 10.7488 17.9083 10.731C17.8772 10.7133 17.8429 10.7019 17.8073 10.6974C17.7717 10.693 17.7356 10.6956 17.7011 10.7051C17.6665 10.7146 17.6342 10.7309 17.606 10.7529L16.3105 11.7681C16.2822 11.79 16.2585 11.8174 16.2408 11.8485C16.223 11.8796 16.2116 11.914 16.2072 11.9495C16.2027 11.9851 16.2053 12.0212 16.2149 12.0557C16.2244 12.0903 16.2406 12.1226 16.2627 12.1509L18.6724 15.2339L18.6655 15.2373L19.8481 16.7515C19.9404 16.8711 20.1113 16.8916 20.231 16.7993L21.9536 15.4561L24.1445 18.2588C24.2368 18.3784 24.4077 18.3989 24.5273 18.3066L25.8228 17.2949C25.9424 17.2026 25.9629 17.0317 25.8706 16.9121L23.6797 14.106ZM20.7812 3.82812C15.0425 3.82812 10.3906 8.47998 10.3906 14.2188C10.3906 16.6216 11.2075 18.833 12.5747 20.5933L3.90673 29.2612C3.85585 29.3126 3.8273 29.382 3.8273 29.4543C3.8273 29.5267 3.85585 29.5961 3.90673 29.6475L5.35254 31.0933C5.45849 31.1992 5.63281 31.1992 5.73877 31.0933L14.4067 22.4253C16.167 23.7925 18.3784 24.6094 20.7812 24.6094C26.52 24.6094 31.1719 19.9575 31.1719 14.2188C31.1719 8.47998 26.52 3.82812 20.7812 3.82812ZM26.291 19.7285C24.8213 21.2017 22.8628 22.0117 20.7812 22.0117C18.6997 22.0117 16.7412 21.2017 15.2715 19.7285C13.7983 18.2588 12.9883 16.3003 12.9883 14.2188C12.9883 12.1372 13.7983 10.1787 15.2715 8.70898C16.7412 7.23584 18.6997 6.42578 20.7812 6.42578C22.8628 6.42578 24.8213 7.23584 26.291 8.70898C27.7642 10.1787 28.5742 12.1372 28.5742 14.2188C28.5742 16.3003 27.7642 18.2588 26.291 19.7285Z" fill="#7A776E"/>
</svg>
