<svg width="24" height="27" viewBox="0 0 24 27" fill="none" xmlns="http://www.w3.org/2000/svg">
<path fill-rule="evenodd" clip-rule="evenodd" d="M0 13.0007C0 12.5082 0.158018 12.0359 0.439291 11.6877C0.720564 11.3394 1.10205 11.1438 1.49983 11.1438H18.8769L12.4366 3.17394C12.155 2.82527 11.9968 2.35236 11.9968 1.85925C11.9968 1.36615 12.155 0.893241 12.4366 0.544563C12.7182 0.195885 13.1002 0 13.4985 0C13.8968 0 14.2787 0.195885 14.5604 0.544563L23.5594 11.686C23.699 11.8585 23.8099 12.0634 23.8855 12.289C23.9611 12.5146 24 12.7564 24 13.0007C24 13.2449 23.9611 13.4868 23.8855 13.7124C23.8099 13.938 23.699 14.1429 23.5594 14.3154L14.5604 25.4568C14.2787 25.8055 13.8968 26.0014 13.4985 26.0014C13.1002 26.0014 12.7182 25.8055 12.4366 25.4568C12.155 25.1082 11.9968 24.6352 11.9968 24.1421C11.9968 23.649 12.155 23.1761 12.4366 22.8274L18.8769 14.8576H1.49983C1.10205 14.8576 0.720564 14.662 0.439291 14.3137C0.158018 13.9655 0 13.4932 0 13.0007Z" fill="white"/>
</svg>
